<!-- Exported by Character Map UWP -->
<svg height="100%" viewBox="32 -234 288 288" width="100%" xmlns="http://www.w3.org/2000/svg" xmlns:xlink="http://www.w3.org/1999/xlink">
  <path d="M319.5,-89.875C319.5,-81.2917 318.75,-72.8125 317.25,-64.4375C315.75,-56.0625 313.5,-47.8333 310.5,-39.75L310.5,9C310.5,12.75 309.792,16.25 308.375,19.5C306.958,22.75 305.021,25.5833 302.563,28C300.104,30.4167 297.25,32.3333 294,33.75C290.75,35.1667 287.25,35.875 283.5,35.875C279.25,35.875 275.229,34.9375 271.438,33.0625C267.646,31.1875 264.5,28.5417 262,25.125C249.5,34.4583 235.917,41.5833 221.25,46.5C206.583,51.4167 191.417,53.875 175.75,53.875C162.5,53.875 149.75,52.1667 137.5,48.75C125.25,45.3333 113.813,40.5 103.188,34.25C92.5625,28 82.875,20.5 74.125,11.75C65.375,3 57.875,-6.6875 51.625,-17.3125C45.375,-27.9375 40.5417,-39.375 37.125,-51.625C33.7083,-63.875 32,-76.625 32,-89.875C32,-103.125 33.7083,-115.875 37.125,-128.125C40.5417,-140.375 45.375,-151.813 51.625,-162.438C57.875,-173.063 65.375,-182.75 74.125,-191.5C82.875,-200.25 92.5625,-207.75 103.188,-214C113.813,-220.25 125.25,-225.083 137.5,-228.5C149.75,-231.917 162.5,-233.625 175.75,-233.625C189,-233.625 201.75,-231.917 214,-228.5C226.25,-225.083 237.688,-220.25 248.313,-214C258.938,-207.75 268.625,-200.25 277.375,-191.5C286.125,-182.75 293.625,-173.063 299.875,-162.438C306.125,-151.813 310.958,-140.375 314.375,-128.125C317.792,-115.875 319.5,-103.125 319.5,-89.875Z" fill="#000000" fill-opacity="1">
  </path>
  <path d="M301.5,-89.875C301.5,-78.2917 300,-67.1458 297,-56.4375C294,-45.7292 289.771,-35.7083 284.313,-26.375C278.854,-17.0417 272.313,-8.5625 264.688,-0.9375C257.063,6.6875 248.583,13.2292 239.25,18.6875C229.917,24.1458 219.896,28.375 209.188,31.375C198.479,34.375 187.333,35.875 175.75,35.875C164.167,35.875 153.021,34.375 142.313,31.375C131.604,28.375 121.604,24.1458 112.313,18.6875C103.021,13.2292 94.5417,6.66667 86.875,-1C79.2083,-8.66667 72.6458,-17.1458 67.1875,-26.4375C61.7292,-35.7292 57.5,-45.7292 54.5,-56.4375C51.5,-67.1458 50,-78.2917 50,-89.875C50,-101.458 51.5,-112.604 54.5,-123.313C57.5,-134.021 61.7292,-144.021 67.1875,-153.313C72.6458,-162.604 79.2083,-171.083 86.875,-178.75C94.5417,-186.417 103.021,-192.979 112.313,-198.438C121.604,-203.896 131.604,-208.125 142.313,-211.125C153.021,-214.125 164.167,-215.625 175.75,-215.625C187.333,-215.625 198.479,-214.125 209.188,-211.125C219.896,-208.125 229.917,-203.896 239.25,-198.438C248.583,-192.979 257.063,-186.438 264.688,-178.813C272.313,-171.188 278.854,-162.708 284.313,-153.375C289.771,-144.042 294,-134.021 297,-123.313C300,-112.604 301.5,-101.458 301.5,-89.875Z" fill="#FFC83D" fill-opacity="1">
  </path>
  <path d="M153.25,-134.75C152.25,-134.75 151.313,-134.917 150.438,-135.25C149.563,-135.583 148.708,-136.042 147.875,-136.625C144.625,-138.958 141.229,-140.708 137.688,-141.875C134.146,-143.042 130.333,-143.625 126.25,-143.625C122.25,-143.625 118.479,-143.042 114.938,-141.875C111.396,-140.708 108,-138.958 104.75,-136.625C103.917,-136.042 103.062,-135.583 102.188,-135.25C101.312,-134.917 100.375,-134.75 99.375,-134.75C96.875,-134.75 94.75,-135.646 93,-137.438C91.25,-139.229 90.375,-141.375 90.375,-143.875C90.375,-145.292 90.6875,-146.604 91.3125,-147.813C91.9375,-149.021 92.8333,-150.083 94,-151C98.5,-154.5 103.583,-157.146 109.25,-158.938C114.917,-160.729 120.583,-161.625 126.25,-161.625C132,-161.625 137.708,-160.729 143.375,-158.938C149.042,-157.146 154.125,-154.5 158.625,-151C159.792,-150.083 160.688,-149 161.313,-147.75C161.938,-146.5 162.25,-145.167 162.25,-143.75C162.25,-141.25 161.354,-139.125 159.563,-137.375C157.771,-135.625 155.667,-134.75 153.25,-134.75Z" fill="#D48C00" fill-opacity="1">
  </path>
  <path d="M104.375,-53.875C107.792,-53.875 110.417,-52.4167 112.25,-49.5C118.5,-39.6667 126.188,-31.9583 135.313,-26.375C144.438,-20.7917 154.917,-18 166.75,-18L193.75,-18C196.25,-18 198.375,-17.125 200.125,-15.375C201.875,-13.625 202.75,-11.5 202.75,-9C202.75,-6.58333 201.854,-4.47917 200.063,-2.6875C198.271,-0.895833 196.167,0 193.75,0L166.75,0C159.667,0 152.688,-0.9375 145.813,-2.8125C138.938,-4.6875 132.438,-7.375 126.313,-10.875C120.188,-14.375 114.583,-18.625 109.5,-23.625C104.417,-28.625 100.167,-34.25 96.75,-40.5C95.9167,-42 95.5,-43.4583 95.5,-44.875C95.5,-47.2917 96.375,-49.3958 98.125,-51.1875C99.875,-52.9792 101.958,-53.875 104.375,-53.875ZM126.375,-125.75C128.208,-125.75 129.938,-125.396 131.563,-124.688C133.188,-123.979 134.604,-123.021 135.813,-121.813C137.021,-120.604 137.979,-119.187 138.688,-117.563C139.396,-115.937 139.75,-114.208 139.75,-112.375L139.75,-94.375C139.75,-92.5417 139.396,-90.8125 138.688,-89.1875C137.979,-87.5625 137.042,-86.125 135.875,-84.875C134.708,-83.625 133.292,-82.6458 131.625,-81.9375C129.958,-81.2292 128.208,-80.875 126.375,-80.875C124.458,-80.875 122.688,-81.2292 121.063,-81.9375C119.438,-82.6458 118.021,-83.6042 116.813,-84.8125C115.604,-86.0208 114.646,-87.4375 113.938,-89.0625C113.229,-90.6875 112.875,-92.4583 112.875,-94.375L112.875,-112.375C112.875,-114.208 113.229,-115.958 113.938,-117.625C114.646,-119.292 115.625,-120.708 116.875,-121.875C118.125,-123.042 119.563,-123.979 121.188,-124.688C122.813,-125.396 124.542,-125.75 126.375,-125.75Z" fill="#000000" fill-opacity="1">
  </path>
  <path d="M225.125,-62.875C219.542,-62.875 214.312,-63.9375 209.438,-66.0625C204.562,-68.1875 200.292,-71.0833 196.625,-74.75C192.958,-78.4167 190.063,-82.7083 187.938,-87.625C185.813,-92.5417 184.75,-97.7917 184.75,-103.375C184.75,-108.958 185.813,-114.187 187.938,-119.063C190.063,-123.937 192.958,-128.208 196.625,-131.875C200.292,-135.542 204.562,-138.438 209.438,-140.563C214.312,-142.688 219.542,-143.75 225.125,-143.75C230.708,-143.75 235.958,-142.688 240.875,-140.563C245.792,-138.438 250.083,-135.542 253.75,-131.875C257.417,-128.208 260.313,-123.937 262.438,-119.063C264.563,-114.187 265.625,-108.958 265.625,-103.375C265.625,-97.7917 264.563,-92.5417 262.438,-87.625C260.313,-82.7083 257.417,-78.4167 253.75,-74.75C250.083,-71.0833 245.792,-68.1875 240.875,-66.0625C235.958,-63.9375 230.708,-62.875 225.125,-62.875Z" fill="#B3DBF2" fill-opacity="1">
  </path>
  <path d="M225.125,-134.75C220.792,-134.75 216.708,-133.938 212.875,-132.313C209.042,-130.688 205.708,-128.458 202.875,-125.625C200.042,-122.792 197.813,-119.458 196.188,-115.625C194.563,-111.792 193.75,-107.708 193.75,-103.375C193.75,-99.0417 194.563,-94.9583 196.188,-91.125C197.813,-87.2917 200.042,-83.9583 202.875,-81.125C205.708,-78.2917 209.042,-76.0417 212.875,-74.375C216.708,-72.7083 220.792,-71.875 225.125,-71.875C229.458,-71.875 233.542,-72.7083 237.375,-74.375C241.208,-76.0417 244.542,-78.2917 247.375,-81.125C250.208,-83.9583 252.458,-87.2917 254.125,-91.125C255.792,-94.9583 256.625,-99.0417 256.625,-103.375C256.625,-107.708 255.792,-111.792 254.125,-115.625C252.458,-119.458 250.208,-122.792 247.375,-125.625C244.542,-128.458 241.208,-130.688 237.375,-132.313C233.542,-133.938 229.458,-134.75 225.125,-134.75ZM225.125,-152.75C231.958,-152.75 238.375,-151.458 244.375,-148.875C250.375,-146.292 255.625,-142.771 260.125,-138.313C264.625,-133.854 268.167,-128.625 270.75,-122.625C273.333,-116.625 274.625,-110.208 274.625,-103.375C274.625,-96.5417 273.333,-90.125 270.75,-84.125C268.167,-78.125 264.625,-72.875 260.125,-68.375C255.625,-63.875 250.375,-60.3333 244.375,-57.75C238.375,-55.1667 231.958,-53.875 225.125,-53.875C218.292,-53.875 211.875,-55.1667 205.875,-57.75C199.875,-60.3333 194.646,-63.875 190.188,-68.375C185.729,-72.875 182.208,-78.125 179.625,-84.125C177.042,-90.125 175.75,-96.5417 175.75,-103.375C175.75,-110.208 177.042,-116.625 179.625,-122.625C182.208,-128.625 185.729,-133.854 190.188,-138.313C194.646,-142.771 199.875,-146.292 205.875,-148.875C211.875,-151.458 218.292,-152.75 225.125,-152.75Z" fill="#757575" fill-opacity="1">
  </path>
  <path d="M274.625,-107.875C277.125,-107.875 279.458,-107.396 281.625,-106.438C283.792,-105.479 285.688,-104.187 287.313,-102.563C288.938,-100.937 290.208,-99.0417 291.125,-96.875C292.042,-94.7083 292.5,-92.375 292.5,-89.875L292.5,9C292.5,11.4167 291.604,13.5208 289.813,15.3125C288.021,17.1042 285.917,18 283.5,18C281.083,18 279,17.1042 277.25,15.3125C275.5,13.5208 274.625,11.4167 274.625,9Z" fill="#383838" fill-opacity="1">
  </path>
</svg>