<!-- Exported by Character Map UWP -->
<svg height="100%" viewBox="32 -234 270 288" width="100%" xmlns="http://www.w3.org/2000/svg" xmlns:xlink="http://www.w3.org/1999/xlink">
  <path d="M32,53.875L32,-233.625L219.125,-233.625L265.625,-187.125L265.625,-116.875L301.5,-116.875L301.5,-36L265.625,-36L265.625,53.875Z" fill="#000000" fill-opacity="1">
  </path>
  <path d="M201.625,-170.125L201.625,-206.125L211.625,-215.625L247.625,-179.75L237.625,-170.875Z" fill="#E5E5E5" fill-opacity="1">
  </path>
  <path d="M211.625,-179.75L247.625,-179.75L247.625,35.875L50,35.875L50,-215.625L211.625,-215.625Z" fill="#FFFFFF" fill-opacity="1">
  </path>
  <path d="M67.875,-161.75L229.625,-161.75L229.625,-152.75L67.875,-152.75ZM67.875,-98.875L67.875,-107.875L220.625,-107.875L220.625,-98.875ZM67.875,-18L67.875,-27L220.625,-27L220.625,-18ZM211.625,-134.75L211.625,-125.75L67.875,-125.75L67.875,-134.75ZM211.625,-53.875L211.625,-45L67.875,-45L67.875,-53.875ZM202.75,-80.875L202.75,-71.875L67.875,-71.875L67.875,-80.875ZM148.75,-188.75L148.75,-179.75L67.875,-179.75L67.875,-188.75ZM67.875,9L67.875,0L103.875,0L103.875,9Z" fill="#A6A6A6" fill-opacity="1">
  </path>
  <path d="M211.625,-76.375C211.625,-77.7917 212.167,-79.0417 213.25,-80.125L229.625,-96.25C231.375,-98 233.5,-98.875 236,-98.875L283.5,-98.875L283.5,-53.875L236,-53.875C234.833,-53.875 233.708,-54.125 232.625,-54.625C231.542,-55.125 230.542,-55.7917 229.625,-56.625L213.25,-72.625C212.167,-73.7083 211.625,-74.9583 211.625,-76.375Z" fill="#E3008C" fill-opacity="1">
  </path>
</svg>