<!-- Exported by Character Map UWP -->
<svg height="100%" viewBox="32 -234 234 288" width="100%" xmlns="http://www.w3.org/2000/svg" xmlns:xlink="http://www.w3.org/1999/xlink">
  <path d="M76.875,53.875C70.7083,53.875 64.8958,52.7083 59.4375,50.375C53.9792,48.0417 49.2083,44.8333 45.125,40.75C41.0417,36.6667 37.8333,31.8958 35.5,26.4375C33.1667,20.9792 32,15.1667 32,9L32,-188.75C32,-194.917 33.1875,-200.729 35.5625,-206.188C37.9375,-211.646 41.1458,-216.396 45.1875,-220.438C49.2292,-224.479 53.9792,-227.687 59.4375,-230.063C64.8958,-232.437 70.7083,-233.625 76.875,-233.625L265.625,-233.625L265.625,53.875Z" fill="#000000" fill-opacity="1">
  </path>
  <path d="M76.875,-215.625C78.0417,-214.625 79.2292,-213.604 80.4375,-212.563C81.6458,-211.521 82.75,-210.417 83.75,-209.25L238.625,-22L238.625,35.875L76.875,35.875C73.125,35.875 69.625,35.1667 66.375,33.75C63.125,32.3333 60.2917,30.4167 57.875,28C55.4583,25.5833 53.5417,22.75 52.125,19.5C50.7083,16.25 50,12.75 50,9L50,-188.75C50,-192.5 50.7083,-196 52.125,-199.25C53.5417,-202.5 55.4583,-205.333 57.875,-207.75C60.2917,-210.167 63.125,-212.083 66.375,-213.5C69.625,-214.917 73.125,-215.625 76.875,-215.625Z" fill="#CA5010" fill-opacity="1">
  </path>
  <path d="M76.875,-9L229.625,-117.625L229.625,26.875L76.875,26.875C74.375,26.875 72.0417,26.4167 69.875,25.5C67.7083,24.5833 65.8125,23.3125 64.1875,21.6875C62.5625,20.0625 61.2917,18.1667 60.375,16C59.4583,13.8333 59,11.5 59,9C59,6.5 59.4583,4.16667 60.375,2C61.2917,-0.166667 62.5625,-2.0625 64.1875,-3.6875C65.8125,-5.3125 67.7083,-6.60417 69.875,-7.5625C72.0417,-8.52083 74.375,-9 76.875,-9Z" fill="#F2F2F2" fill-opacity="1">
  </path>
  <path d="M247.625,-215.625L247.625,-9L76.875,-9L76.875,-215.625Z" fill="#F7630C" fill-opacity="1">
  </path>
</svg>