<!-- Exported by Character Map UWP -->
<svg height="100%" viewBox="32 -234 288 288" width="100%" xmlns="http://www.w3.org/2000/svg" xmlns:xlink="http://www.w3.org/1999/xlink">
  <path d="M319.5,53.875L32,53.875L32,-233.625L319.5,-233.625Z" fill="#000000" fill-opacity="1">
  </path>
  <path d="M301.5,35.875L50,35.875L50,-215.625L301.5,-215.625Z" fill="#0078D7" fill-opacity="1">
  </path>
  <path d="M114.25,-142.375C122.083,-151.458 131.292,-158.458 141.875,-163.375C152.458,-168.292 163.75,-170.75 175.75,-170.75C183.167,-170.75 190.333,-169.792 197.25,-167.875C204.167,-165.958 210.604,-163.229 216.563,-159.688C222.521,-156.146 227.958,-151.917 232.875,-147C237.792,-142.083 242.021,-136.646 245.563,-130.688C249.104,-124.729 251.833,-118.292 253.75,-111.375C255.667,-104.458 256.625,-97.2917 256.625,-89.875L238.625,-89.875C238.625,-98.5417 236.979,-106.688 233.688,-114.313C230.396,-121.938 225.896,-128.604 220.188,-134.313C214.479,-140.021 207.813,-144.521 200.188,-147.813C192.563,-151.104 184.417,-152.75 175.75,-152.75C171,-152.75 166.354,-152.229 161.813,-151.188C157.271,-150.146 152.917,-148.646 148.75,-146.688C144.583,-144.729 140.667,-142.313 137,-139.438C133.333,-136.563 130,-133.292 127,-129.625L148.75,-107.875L94.875,-107.875L94.875,-161.75ZM175.75,-27C180.5,-27 185.146,-27.5208 189.688,-28.5625C194.229,-29.6042 198.583,-31.1042 202.75,-33.0625C206.917,-35.0208 210.833,-37.4375 214.5,-40.3125C218.167,-43.1875 221.5,-46.4583 224.5,-50.125L202.75,-71.875L256.625,-71.875L256.625,-18L237.25,-37.375C229.417,-28.2917 220.208,-21.2917 209.625,-16.375C199.042,-11.4583 187.75,-9 175.75,-9C168.333,-9 161.167,-9.95833 154.25,-11.875C147.333,-13.7917 140.896,-16.5208 134.938,-20.0625C128.979,-23.6042 123.542,-27.8333 118.625,-32.75C113.708,-37.6667 109.479,-43.1042 105.938,-49.0625C102.396,-55.0208 99.6667,-61.4583 97.75,-68.375C95.8333,-75.2917 94.875,-82.4583 94.875,-89.875L112.875,-89.875C112.875,-81.2083 114.521,-73.0625 117.813,-65.4375C121.104,-57.8125 125.604,-51.1458 131.313,-45.4375C137.021,-39.7292 143.688,-35.2292 151.313,-31.9375C158.938,-28.6458 167.083,-27 175.75,-27Z" fill="#FFFFFF" fill-opacity="1">
  </path>
</svg>