<!-- Exported by Character Map UWP -->
<svg height="100%" viewBox="32 -189 288 207" width="100%" xmlns="http://www.w3.org/2000/svg" xmlns:xlink="http://www.w3.org/1999/xlink">
  <path d="M32,18L32,-188.625L319.5,-188.625L319.5,18Z" fill="#000000" fill-opacity="1">
  </path>
  <path d="M301.5,-170.75L301.5,-27L289.75,-15.25L58,-15.25L50,-27L50,-170.75L157.75,-170.75L175.625,-155L193.625,-170.75Z" fill="#F7D7C4" fill-opacity="1">
  </path>
  <path d="M301.5,-27L301.5,-18L291.875,-14.375L301.5,-9L301.5,0L193.625,0L175,-14.25L157.75,0L50,0L50,-9L57.25,-13.5L50,-18L50,-27Z" fill="#BB9167" fill-opacity="1">
  </path>
  <path d="M112.875,-101.5L112.875,-98.875L130.875,-98.875L130.875,-89.875L112.875,-89.875L112.875,-80.875L130.875,-80.875L130.875,-71.875L112.875,-71.875L112.875,-62.875L103.875,-62.875L103.875,-71.875L85.875,-71.875L85.875,-80.875L103.875,-80.875L103.875,-89.875L85.875,-89.875L85.875,-98.875L103.875,-98.875L103.875,-101.5L76.875,-128.375L83.25,-134.75L108.375,-109.625L133.5,-134.75L139.75,-128.375Z" fill="#757575" fill-opacity="1">
  </path>
  <path d="M157.75,-62.875C157.75,-60.4583 156.854,-58.3542 155.063,-56.5625C153.271,-54.7708 151.167,-53.875 148.75,-53.875C146.333,-53.875 144.229,-54.7708 142.438,-56.5625C140.646,-58.3542 139.75,-60.4583 139.75,-62.875C139.75,-65.2917 140.646,-67.3958 142.438,-69.1875C144.229,-70.9792 146.333,-71.875 148.75,-71.875C151.25,-71.875 153.375,-71 155.125,-69.25C156.875,-67.5 157.75,-65.375 157.75,-62.875Z" fill="#E6808A" fill-opacity="1">
  </path>
  <path d="M238.625,-161.75L292.5,-161.75L292.5,-36L59,-36L59,-134.75L67.875,-134.75L67.875,-44.875L238.625,-44.875C246.125,-44.875 253.146,-46.2917 259.688,-49.125C266.229,-51.9583 271.938,-55.8125 276.813,-60.6875C281.688,-65.5625 285.521,-71.2708 288.313,-77.8125C291.104,-84.3542 292.5,-91.375 292.5,-98.875C292.5,-106.292 291.083,-113.271 288.25,-119.813C285.417,-126.354 281.563,-132.063 276.688,-136.938C271.813,-141.813 266.104,-145.667 259.563,-148.5C253.021,-151.333 246.042,-152.75 238.625,-152.75ZM94.875,-161.75L94.875,-143.75L59,-143.75L59,-161.75ZM103.875,-152.75L103.875,-161.75L170.25,-161.75L170.25,-152.75Z" fill="#BB9167" fill-opacity="1">
  </path>
  <path d="M202.75,-62.875C202.75,-66.2083 203.208,-69.5 204.125,-72.75C205.042,-76 206.375,-79.0208 208.125,-81.8125C209.875,-84.6042 211.979,-87.1458 214.438,-89.4375C216.896,-91.7292 219.625,-93.625 222.625,-95.125C219.125,-97.625 216.417,-100.792 214.5,-104.625C212.583,-108.458 211.625,-112.5 211.625,-116.75C211.625,-120.5 212.333,-124 213.75,-127.25C215.167,-130.5 217.104,-133.354 219.563,-135.813C222.021,-138.271 224.875,-140.208 228.125,-141.625C231.375,-143.042 234.875,-143.75 238.625,-143.75C242.375,-143.75 245.875,-143.042 249.125,-141.625C252.375,-140.208 255.229,-138.271 257.688,-135.813C260.146,-133.354 262.083,-130.5 263.5,-127.25C264.917,-124 265.625,-120.5 265.625,-116.75C265.625,-112.5 264.667,-108.458 262.75,-104.625C260.833,-100.792 258.125,-97.625 254.625,-95.125C257.708,-93.625 260.479,-91.7292 262.938,-89.4375C265.396,-87.1458 267.5,-84.6042 269.25,-81.8125C271,-79.0208 272.333,-76 273.25,-72.75C274.167,-69.5 274.625,-66.2083 274.625,-62.875ZM50,-18L301.5,-18L301.5,-9L50,-9Z" fill="#D8B094" fill-opacity="1">
  </path>
  <path d="M193.75,-27L193.75,0L157.75,0L157.75,-27L175.875,-42.625Z" fill="#E5E5E5" fill-opacity="1">
  </path>
  <path d="M193.75,-27L157.75,-27L157.75,-170.75L193.75,-170.75Z" fill="#F2F2F2" fill-opacity="1">
  </path>
</svg>