<!-- Exported by Character Map UWP -->
<svg height="100%" viewBox="32 -234 288 288" width="100%" xmlns="http://www.w3.org/2000/svg" xmlns:xlink="http://www.w3.org/1999/xlink">
  <path d="M319.5,53.875L32,53.875L32,-233.625L319.5,-233.625Z" fill="#000000" fill-opacity="1">
  </path>
  <path d="M301.5,35.875L50,35.875L50,-215.625L301.5,-215.625Z" fill="#0078D7" fill-opacity="1">
  </path>
  <path d="M270.125,-113.625L255.125,-57L241,-57L231.625,-93.25C231.042,-95.5833 230.708,-97.7083 230.625,-99.625C229.292,-92.2917 227.646,-85.125 225.688,-78.125C223.729,-71.125 221.792,-64.0833 219.875,-57L205.125,-57L190.25,-113.625L204.25,-113.625L212.125,-75.875C212.375,-74.7917 212.542,-73.7292 212.625,-72.6875C212.708,-71.6458 212.792,-70.5417 212.875,-69.375C213.042,-70.5417 213.229,-71.6667 213.438,-72.75C213.646,-73.8333 213.917,-74.9167 214.25,-76L224.625,-113.625L238.25,-113.625L247.5,-75.625C247.75,-74.625 247.917,-73.6042 248,-72.5625C248.083,-71.5208 248.208,-70.5 248.375,-69.5C248.542,-70.5833 248.708,-71.6458 248.875,-72.6875C249.042,-73.7292 249.208,-74.75 249.375,-75.75L257.25,-113.625ZM138.125,-57L125.25,-57C120.917,-63.5833 116.438,-70.25 111.813,-77C107.188,-83.75 102.917,-90.5 99,-97.25C99.1667,-95.75 99.25,-94.2292 99.25,-92.6875C99.25,-91.1458 99.25,-89.625 99.25,-88.125L99.25,-57L87.125,-57L87.125,-113.625L100.875,-113.625C105.125,-107.125 109.417,-100.667 113.75,-94.25C118.083,-87.8333 122.25,-81.25 126.25,-74.5C126.083,-75.4167 126,-76.2708 126,-77.0625C126,-77.8542 126,-78.7083 126,-79.625L126,-113.625L138.125,-113.625ZM185.375,-57L151.375,-57L151.375,-113.625L184.125,-113.625L184.125,-103.25L164.125,-103.25L164.125,-90.625L182.625,-90.625L182.625,-80.25L164.125,-80.25L164.125,-67.25L185.375,-67.25Z" fill="#FFFFFF" fill-opacity="1">
  </path>
</svg>