<!-- Exported by Character Map UWP -->
<svg height="100%" viewBox="32 -189 288 198" width="100%" xmlns="http://www.w3.org/2000/svg" xmlns:xlink="http://www.w3.org/1999/xlink">
  <path d="M277.75,-172.375L285.125,-179.75L319.5,-179.75L319.5,-89.875L285.125,-89.875L283.5,-91.375L283.5,-27C283.5,-22.0833 282.542,-17.4583 280.625,-13.125C278.708,-8.79167 276.125,-4.97917 272.875,-1.6875C269.625,1.60417 265.813,4.20833 261.438,6.125C257.063,8.04167 252.458,9 247.625,9L94.875,9C89.9583,9 85.3333,8.04167 81,6.125C76.6667,4.20833 72.875,1.60417 69.625,-1.6875C66.375,-4.97917 63.7917,-8.79167 61.875,-13.125C59.9583,-17.4583 59,-22.0833 59,-27L59,-80.875L32,-80.875L32,-188.75L247.625,-188.75C253.708,-188.75 259.417,-187.292 264.75,-184.375C270.083,-181.458 274.417,-177.458 277.75,-172.375Z" fill="#000000" fill-opacity="1">
  </path>
  <path d="M274.625,-152.75L283.5,-152.75L293.5,-136.375L283.5,-116.875L274.625,-116.875L265.625,-133.875L265.625,-27C265.625,-24.5 265.146,-22.1667 264.188,-20C263.229,-17.8333 261.938,-15.9375 260.313,-14.3125C258.688,-12.6875 256.792,-11.3958 254.625,-10.4375C252.458,-9.47917 250.125,-9 247.625,-9L234,-17.75L108.75,-17.75L94.875,-9C92.375,-9 90.0417,-9.47917 87.875,-10.4375C85.7083,-11.3958 83.8125,-12.6875 82.1875,-14.3125C80.5625,-15.9375 79.2708,-17.8333 78.3125,-20C77.3542,-22.1667 76.875,-24.5 76.875,-27L76.875,-98.875C76.875,-99.7083 76.6875,-100.583 76.3125,-101.5C75.9375,-102.417 75.5,-103.354 75,-104.313C74.5,-105.271 74.0625,-106.208 73.6875,-107.125C73.3125,-108.042 73.125,-108.917 73.125,-109.75L73.125,-156.5C73.125,-156.667 73.2917,-157.438 73.625,-158.813C73.9583,-160.188 74.3542,-161.729 74.8125,-163.438C75.2708,-165.146 75.6875,-166.729 76.0625,-168.188C76.4375,-169.646 76.7083,-170.5 76.875,-170.75L247.625,-170.75C250.125,-170.75 252.458,-170.271 254.625,-169.313C256.792,-168.354 258.688,-167.063 260.313,-165.438C261.938,-163.813 263.229,-161.917 264.188,-159.75C265.146,-157.583 265.625,-155.25 265.625,-152.75L265.625,-137.875Z" fill="#E5E5E5" fill-opacity="1">
  </path>
  <path d="M67.875,-98.875L60.375,-110.5L60.375,-157.75L67.875,-170.75L76.875,-170.75L76.875,-98.875Z" fill="#F2F2F2" fill-opacity="1">
  </path>
  <path d="M103.875,-98.875C106.375,-98.875 108.5,-98 110.25,-96.25C112,-94.5 112.875,-92.375 112.875,-89.875C112.875,-87.375 112,-85.25 110.25,-83.5C108.5,-81.75 106.375,-80.875 103.875,-80.875C101.375,-80.875 99.25,-81.75 97.5,-83.5C95.75,-85.25 94.875,-87.375 94.875,-89.875C94.875,-92.375 95.75,-94.5 97.5,-96.25C99.25,-98 101.375,-98.875 103.875,-98.875Z" fill="#F03A17" fill-opacity="1">
  </path>
  <path d="M238.625,-62.875C241.125,-62.875 243.25,-62 245,-60.25C246.75,-58.5 247.625,-56.375 247.625,-53.875L247.625,-9L94.875,-9L94.875,-53.875C94.875,-56.375 95.75,-58.5 97.5,-60.25C99.25,-62 101.375,-62.875 103.875,-62.875ZM148.75,-152.75L274.625,-152.75L274.625,-116.875L148.75,-116.875C146.25,-116.875 143.917,-117.333 141.75,-118.25C139.583,-119.167 137.688,-120.437 136.063,-122.063C134.438,-123.687 133.167,-125.583 132.25,-127.75C131.333,-129.917 130.875,-132.25 130.875,-134.75C130.875,-137.25 131.333,-139.583 132.25,-141.75C133.167,-143.917 134.438,-145.813 136.063,-147.438C137.688,-149.063 139.583,-150.354 141.75,-151.313C143.917,-152.271 146.25,-152.75 148.75,-152.75Z" fill="#A6A6A6" fill-opacity="1">
  </path>
  <path d="M50,-98.875L50,-170.75L67.875,-170.75L67.875,-98.875ZM292.5,-161.75L301.5,-161.75L301.5,-107.875L292.5,-107.875L283.5,-116.875L283.5,-152.75ZM130.875,-80.875L130.875,-98.875L166.75,-98.875L166.75,-80.875Z" fill="#757575" fill-opacity="1">
  </path>
</svg>