<!-- Exported by Character Map UWP -->
<svg height="100%" viewBox="32 -207 261 252" width="100%" xmlns="http://www.w3.org/2000/svg" xmlns:xlink="http://www.w3.org/1999/xlink">
  <path d="M85.875,44.875C78.4583,44.875 71.4792,43.4583 64.9375,40.625C58.3958,37.7917 52.6875,33.9375 47.8125,29.0625C42.9375,24.1875 39.0833,18.4792 36.25,11.9375C33.4167,5.39583 32,-1.58333 32,-9C32,-15 32.9583,-20.8333 34.875,-26.5C36.7917,-32.1667 39.625,-37.375 43.375,-42.125C39.625,-46.2083 36.7917,-50.8125 34.875,-55.9375C32.9583,-61.0625 32,-66.375 32,-71.875C32,-79.2083 33.6458,-86.0833 36.9375,-92.5C40.2292,-98.9167 44.875,-104.25 50.875,-108.5C50.2917,-111.083 50,-113.875 50,-116.875C50,-121.958 51,-126.75 53,-131.25C49,-135.5 46,-140.208 44,-145.375C42,-150.542 41,-156 41,-161.75C41,-167.917 42.1875,-173.729 44.5625,-179.188C46.9375,-184.646 50.1458,-189.396 54.1875,-193.438C58.2292,-197.479 62.9792,-200.687 68.4375,-203.063C73.8958,-205.437 79.7083,-206.625 85.875,-206.625L283.5,-206.625L283.5,-152.75L292.5,-152.75L292.5,-80.875L274.625,-80.875L274.625,-62.875L292.5,-62.875L292.5,44.875Z" fill="#000000" fill-opacity="1">
  </path>
  <path d="M85.875,-134.75C82.125,-134.75 78.625,-135.458 75.375,-136.875C72.125,-138.292 69.2917,-140.229 66.875,-142.688C64.4583,-145.146 62.5417,-148 61.125,-151.25C59.7083,-154.5 59,-158 59,-161.75C59,-165.5 59.7083,-169 61.125,-172.25C62.5417,-175.5 64.4583,-178.354 66.875,-180.813C69.2917,-183.271 72.125,-185.208 75.375,-186.625C78.625,-188.042 82.125,-188.75 85.875,-188.75L139.75,-188.75L139.75,-109.375Z" fill="#16C60C" fill-opacity="1">
  </path>
  <path d="M130.875,-134.75C127.125,-134.75 123.625,-135.458 120.375,-136.875C117.125,-138.292 114.271,-140.229 111.813,-142.688C109.354,-145.146 107.417,-148 106,-151.25C104.583,-154.5 103.875,-158 103.875,-161.75C103.875,-165.5 104.583,-169 106,-172.25C107.417,-175.5 109.354,-178.354 111.813,-180.813C114.271,-183.271 117.125,-185.208 120.375,-186.625C123.625,-188.042 127.125,-188.75 130.875,-188.75L265.625,-188.75L265.625,-179.75L256.625,-179.75L243.25,-161.875L256.625,-143.75L265.625,-143.75L265.625,-124.5L131.625,-124.5Z" fill="#107C10" fill-opacity="1">
  </path>
  <path d="M50,-71.875C50,-75.625 50.7083,-79.125 52.125,-82.375C53.5417,-85.625 55.4583,-88.4792 57.875,-90.9375C60.2917,-93.3958 63.125,-95.3333 66.375,-96.75C69.625,-98.1667 73.125,-98.875 76.875,-98.875L86,-98.875L112.875,-119.5L112.875,-21.875L86.25,-45L76.875,-45C73.125,-45 69.625,-45.7083 66.375,-47.125C63.125,-48.5417 60.2917,-50.4583 57.875,-52.875C55.4583,-55.2917 53.5417,-58.125 52.125,-61.375C50.7083,-64.625 50,-68.125 50,-71.875Z" fill="#3A96DD" fill-opacity="1">
  </path>
  <path d="M112.875,-45C109.125,-45 105.625,-45.7083 102.375,-47.125C99.125,-48.5417 96.2708,-50.4583 93.8125,-52.875C91.3542,-55.2917 89.4167,-58.125 88,-61.375C86.5833,-64.625 85.875,-68.125 85.875,-71.875C85.875,-75.625 86.5833,-79.125 88,-82.375C89.4167,-85.625 91.3542,-88.4792 93.8125,-90.9375C96.2708,-93.3958 99.125,-95.3333 102.375,-96.75C105.625,-98.1667 109.125,-98.875 112.875,-98.875L112.875,-110.125L256.625,-110.125L256.625,-89.875L247.625,-89.875L238.625,-80.875L238.625,-63.625L247.5,-53.875L256.625,-53.875L256.625,-34.875L113.125,-34.875Z" fill="#0063B1" fill-opacity="1">
  </path>
  <path d="M85.875,-134.75L130.875,-134.75L130.875,-98.875L85.875,-98.875C83.375,-98.875 81.0417,-99.3542 78.875,-100.313C76.7083,-101.271 74.8125,-102.563 73.1875,-104.188C71.5625,-105.813 70.2708,-107.708 69.3125,-109.875C68.3542,-112.042 67.875,-114.375 67.875,-116.875C67.875,-119.375 68.3542,-121.708 69.3125,-123.875C70.2708,-126.042 71.5625,-127.937 73.1875,-129.563C74.8125,-131.188 76.7083,-132.458 78.875,-133.375C81.0417,-134.292 83.375,-134.75 85.875,-134.75Z" fill="#FFB900" fill-opacity="1">
  </path>
  <path d="M130.875,-98.875C128.375,-98.875 126.021,-99.3333 123.813,-100.25C121.604,-101.167 119.688,-102.437 118.063,-104.063C116.438,-105.687 115.167,-107.604 114.25,-109.813C113.333,-112.021 112.875,-114.375 112.875,-116.875C112.875,-119.375 113.354,-121.708 114.313,-123.875C115.271,-126.042 116.563,-127.937 118.188,-129.563C119.813,-131.188 121.708,-132.458 123.875,-133.375C126.042,-134.292 128.375,-134.75 130.875,-134.75L283.5,-134.75L283.5,-125.75L274.625,-125.75L265.625,-116.875L274.625,-107.875L283.5,-107.875L283.5,-98.875Z" fill="#EBA300" fill-opacity="1">
  </path>
  <path d="M85.875,-45L157.75,-45L157.75,26.875L85.875,26.875C80.875,26.875 76.2083,25.9375 71.875,24.0625C67.5417,22.1875 63.75,19.625 60.5,16.375C57.25,13.125 54.6875,9.33333 52.8125,5C50.9375,0.666667 50,-4 50,-9C50,-14 50.9375,-18.6875 52.8125,-23.0625C54.6875,-27.4375 57.25,-31.25 60.5,-34.5C63.75,-37.75 67.5417,-40.3125 71.875,-42.1875C76.2083,-44.0625 80.875,-45 85.875,-45Z" fill="#F7630C" fill-opacity="1">
  </path>
  <path d="M148.75,26.875C143.833,26.875 139.188,25.9375 134.813,24.0625C130.438,22.1875 126.625,19.625 123.375,16.375C120.125,13.125 117.562,9.3125 115.688,4.9375C113.812,0.5625 112.875,-4.08333 112.875,-9C112.875,-13.8333 113.833,-18.4375 115.75,-22.8125C117.667,-27.1875 120.25,-31.0208 123.5,-34.3125C126.75,-37.6042 130.542,-40.2083 134.875,-42.125C139.208,-44.0417 143.833,-45 148.75,-45L283.5,-45L283.5,-36L274.5,-36L265.625,-27.625L265.625,7.875L274.5,18L283.5,18L283.5,26.875Z" fill="#CA5010" fill-opacity="1">
  </path>
  <path d="M121.875,-9C121.875,-12.75 122.583,-16.25 124,-19.5C125.417,-22.75 127.333,-25.6042 129.75,-28.0625C132.167,-30.5208 135,-32.4583 138.25,-33.875C141.5,-35.2917 145,-36 148.75,-36L274.625,-36L274.625,18L148.75,18C145,18 141.5,17.2917 138.25,15.875C135,14.4583 132.167,12.5208 129.75,10.0625C127.333,7.60417 125.417,4.75 124,1.5C122.583,-1.75 121.875,-5.25 121.875,-9ZM247.625,-89.875L247.625,-53.875L112.875,-53.875C110.375,-53.875 108.042,-54.3542 105.875,-55.3125C103.708,-56.2708 101.813,-57.5625 100.188,-59.1875C98.5625,-60.8125 97.2708,-62.7083 96.3125,-64.875C95.3542,-67.0417 94.875,-69.375 94.875,-71.875C94.875,-74.375 95.3333,-76.7083 96.25,-78.875C97.1667,-81.0417 98.4375,-82.9375 100.063,-84.5625C101.688,-86.1875 103.604,-87.4792 105.813,-88.4375C108.021,-89.3958 110.375,-89.875 112.875,-89.875ZM130.875,-143.75C128.375,-143.75 126.042,-144.229 123.875,-145.188C121.708,-146.146 119.813,-147.438 118.188,-149.063C116.563,-150.688 115.271,-152.583 114.313,-154.75C113.354,-156.917 112.875,-159.25 112.875,-161.75C112.875,-164.25 113.354,-166.583 114.313,-168.75C115.271,-170.917 116.563,-172.813 118.188,-174.438C119.813,-176.063 121.708,-177.354 123.875,-178.313C126.042,-179.271 128.375,-179.75 130.875,-179.75L256.625,-179.75L256.625,-143.75ZM130.875,-125.75L274.625,-125.75L274.625,-107.875L130.875,-107.875C128.375,-107.875 126.25,-108.75 124.5,-110.5C122.75,-112.25 121.875,-114.375 121.875,-116.875C121.875,-119.292 122.771,-121.375 124.563,-123.125C126.354,-124.875 128.458,-125.75 130.875,-125.75Z" fill="#FFFFFF" fill-opacity="1">
  </path>
</svg>