<!-- Exported by Character Map UWP -->
<svg height="100%" viewBox="32 -234 288 288" width="100%" xmlns="http://www.w3.org/2000/svg" xmlns:xlink="http://www.w3.org/1999/xlink">
  <path d="M319.5,-89.875C319.5,-76.625 317.792,-63.875 314.375,-51.625C310.958,-39.375 306.125,-27.9375 299.875,-17.3125C293.625,-6.6875 286.125,3 277.375,11.75C268.625,20.5 258.938,28 248.313,34.25C237.688,40.5 226.25,45.3333 214,48.75C201.75,52.1667 189,53.875 175.75,53.875C162.5,53.875 149.75,52.1667 137.5,48.75C125.25,45.3333 113.813,40.5 103.188,34.25C92.5625,28 82.875,20.5 74.125,11.75C65.375,3 57.875,-6.6875 51.625,-17.3125C45.375,-27.9375 40.5417,-39.375 37.125,-51.625C33.7083,-63.875 32,-76.625 32,-89.875C32,-103.125 33.7083,-115.875 37.125,-128.125C40.5417,-140.375 45.375,-151.813 51.625,-162.438C57.875,-173.063 65.375,-182.75 74.125,-191.5C82.875,-200.25 92.5625,-207.75 103.188,-214C113.813,-220.25 125.25,-225.083 137.5,-228.5C149.75,-231.917 162.5,-233.625 175.75,-233.625C189,-233.625 201.75,-231.917 214,-228.5C226.25,-225.083 237.688,-220.25 248.313,-214C258.938,-207.75 268.625,-200.25 277.375,-191.5C286.125,-182.75 293.625,-173.063 299.875,-162.438C306.125,-151.813 310.958,-140.375 314.375,-128.125C317.792,-115.875 319.5,-103.125 319.5,-89.875Z" fill="#000000" fill-opacity="1">
  </path>
  <path d="M301.5,-89.875C301.5,-78.2917 300,-67.1458 297,-56.4375C294,-45.7292 289.771,-35.7083 284.313,-26.375C278.854,-17.0417 272.313,-8.5625 264.688,-0.9375C257.063,6.6875 248.583,13.2292 239.25,18.6875C229.917,24.1458 219.896,28.375 209.188,31.375C198.479,34.375 187.333,35.875 175.75,35.875C164.167,35.875 153.021,34.375 142.313,31.375C131.604,28.375 121.583,24.1458 112.25,18.6875C102.917,13.2292 94.4375,6.6875 86.8125,-0.9375C79.1875,-8.5625 72.6458,-17.0417 67.1875,-26.375C61.7292,-35.7083 57.5,-45.7292 54.5,-56.4375C51.5,-67.1458 50,-78.2917 50,-89.875C50,-101.458 51.5,-112.604 54.5,-123.313C57.5,-134.021 61.7292,-144.042 67.1875,-153.375C72.6458,-162.708 79.1875,-171.188 86.8125,-178.813C94.4375,-186.438 102.917,-192.979 112.25,-198.438C121.583,-203.896 131.604,-208.125 142.313,-211.125C153.021,-214.125 164.167,-215.625 175.75,-215.625C187.333,-215.625 198.479,-214.125 209.188,-211.125C219.896,-208.125 229.917,-203.896 239.25,-198.438C248.583,-192.979 257.063,-186.438 264.688,-178.813C272.313,-171.188 278.854,-162.708 284.313,-153.375C289.771,-144.042 294,-134.021 297,-123.313C300,-112.604 301.5,-101.458 301.5,-89.875Z" fill="#FFC83D" fill-opacity="1">
  </path>
  <path d="M247.625,-62.875C247.625,-52.9583 245.729,-43.6458 241.938,-34.9375C238.146,-26.2292 233,-18.625 226.5,-12.125C220,-5.625 212.396,-0.479167 203.688,3.3125C194.979,7.10417 185.667,9 175.75,9C165.833,9 156.521,7.10417 147.813,3.3125C139.104,-0.479167 131.5,-5.625 125,-12.125C118.5,-18.625 113.354,-26.2292 109.563,-34.9375C105.771,-43.6458 103.875,-52.9583 103.875,-62.875ZM225.125,-134.75C226.958,-134.75 228.688,-134.396 230.313,-133.688C231.938,-132.979 233.375,-132.042 234.625,-130.875C235.875,-129.708 236.854,-128.292 237.563,-126.625C238.271,-124.958 238.625,-123.208 238.625,-121.375L238.625,-103.375C238.625,-101.458 238.271,-99.6875 237.563,-98.0625C236.854,-96.4375 235.896,-95.0208 234.688,-93.8125C233.479,-92.6042 232.042,-91.6458 230.375,-90.9375C228.708,-90.2292 226.958,-89.875 225.125,-89.875C223.292,-89.875 221.562,-90.2292 219.938,-90.9375C218.312,-91.6458 216.875,-92.625 215.625,-93.875C214.375,-95.125 213.396,-96.5625 212.688,-98.1875C211.979,-99.8125 211.625,-101.542 211.625,-103.375L211.625,-121.375C211.625,-123.208 211.979,-124.937 212.688,-126.563C213.396,-128.188 214.375,-129.604 215.625,-130.813C216.875,-132.021 218.312,-132.979 219.938,-133.688C221.562,-134.396 223.292,-134.75 225.125,-134.75ZM126.375,-134.75C128.208,-134.75 129.938,-134.396 131.563,-133.688C133.188,-132.979 134.604,-132.021 135.813,-130.813C137.021,-129.604 137.979,-128.188 138.688,-126.563C139.396,-124.937 139.75,-123.208 139.75,-121.375L139.75,-103.375C139.75,-101.542 139.396,-99.8125 138.688,-98.1875C137.979,-96.5625 137.042,-95.125 135.875,-93.875C134.708,-92.625 133.292,-91.6458 131.625,-90.9375C129.958,-90.2292 128.208,-89.875 126.375,-89.875C124.458,-89.875 122.688,-90.2292 121.063,-90.9375C119.438,-91.6458 118.021,-92.6042 116.813,-93.8125C115.604,-95.0208 114.646,-96.4375 113.938,-98.0625C113.229,-99.6875 112.875,-101.458 112.875,-103.375L112.875,-121.375C112.875,-123.208 113.229,-124.958 113.938,-126.625C114.646,-128.292 115.625,-129.708 116.875,-130.875C118.125,-132.042 119.563,-132.979 121.188,-133.688C122.813,-134.396 124.542,-134.75 126.375,-134.75Z" fill="#000000" fill-opacity="1">
  </path>
  <path d="M118.875,-36C117.458,-38.8333 116.313,-41.75 115.438,-44.75C114.563,-47.75 113.917,-50.7917 113.5,-53.875L238,-53.875C237.167,-47.7083 235.333,-41.75 232.5,-36Z" fill="#FFFFFF" fill-opacity="1">
  </path>
  <path d="M202.375,-6C198.208,-4 193.875,-2.5 189.375,-1.5C184.875,-0.5 180.333,0 175.75,0C171.167,0 166.625,-0.5 162.125,-1.5C157.625,-2.5 153.292,-4 149.125,-6C152.542,-9.83333 156.563,-12.7917 161.188,-14.875C165.813,-16.9583 170.667,-18 175.75,-18C180.833,-18 185.688,-16.9583 190.313,-14.875C194.937,-12.7917 198.958,-9.83333 202.375,-6Z" fill="#F03A17" fill-opacity="1">
  </path>
</svg>