<!-- Exported by Character Map UWP -->
<svg height="100%" viewBox="32 -234 153 288" width="100%" xmlns="http://www.w3.org/2000/svg" xmlns:xlink="http://www.w3.org/1999/xlink">
  <path d="M130.875,-233.625C138.292,-233.625 145.271,-232.208 151.813,-229.375C158.354,-226.542 164.063,-222.688 168.938,-217.813C173.813,-212.938 177.667,-207.229 180.5,-200.688C183.333,-194.146 184.75,-187.167 184.75,-179.75L184.75,-89.875C184.75,-86.7083 183.917,-83.75 182.25,-81C180.583,-78.25 178.417,-76.0417 175.75,-74.375L175.75,22.375C175.75,26.7083 174.917,30.7917 173.25,34.625C171.583,38.4583 169.333,41.7917 166.5,44.625C163.667,47.4583 160.333,49.7083 156.5,51.375C152.667,53.0417 148.583,53.875 144.25,53.875C140.083,53.875 136.125,53.0833 132.375,51.5C128.625,49.9167 125.333,47.75 122.5,45C119.667,42.25 117.396,39.0417 115.688,35.375C113.979,31.7083 113.042,27.7917 112.875,23.625C112.708,27.7917 111.75,31.7083 110,35.375C108.25,39.0417 105.958,42.25 103.125,45C100.292,47.75 97,49.9167 93.25,51.5C89.5,53.0833 85.5417,53.875 81.375,53.875C77.0417,53.875 72.9792,53.0417 69.1875,51.375C65.3958,49.7083 62.0833,47.4375 59.25,44.5625C56.4167,41.6875 54.1667,38.3542 52.5,34.5625C50.8333,30.7708 50,26.7083 50,22.375L50,-110.25C44.3333,-115 39.9167,-120.687 36.75,-127.313C33.5833,-133.938 32,-140.917 32,-148.25L32,-206.625C32,-210.375 32.7083,-213.875 34.125,-217.125C35.5417,-220.375 37.4792,-223.229 39.9375,-225.688C42.3958,-228.146 45.25,-230.083 48.5,-231.5C51.75,-232.917 55.25,-233.625 59,-233.625Z" fill="#000000" fill-opacity="1">
  </path>
  <path d="M108.375,-215.625C109.625,-215.625 110.687,-215.187 111.563,-214.313C112.437,-213.437 112.875,-212.375 112.875,-211.125L112.875,-148.25C112.875,-142.167 111.25,-136.563 108,-131.438C104.75,-126.312 100.375,-122.458 94.875,-119.875L94.875,-107.875C92.9583,-106.458 90.8542,-105.354 88.5625,-104.563C86.2708,-103.771 83.9167,-103.375 81.5,-103.375C79.0833,-103.375 76.7292,-103.792 74.4375,-104.625C72.1458,-105.458 70,-106.542 68,-107.875L68,-119.875C62.5,-122.458 58.125,-126.312 54.875,-131.438C51.625,-136.563 50,-142.167 50,-148.25L50,-211.125C50,-212.375 50.4375,-213.437 51.3125,-214.313C52.1875,-215.187 53.25,-215.625 54.5,-215.625C56.5,-215.625 57.75,-215 58.25,-213.75C58.75,-212.5 59,-211.083 59,-209.5L59,-157.25C59,-156 59.4375,-154.938 60.3125,-154.063C61.1875,-153.188 62.25,-152.75 63.5,-152.75C64.75,-152.75 65.8125,-153.188 66.6875,-154.063C67.5625,-154.938 68,-156 68,-157.25C68,-165.667 67.9583,-174.042 67.875,-182.375C67.7917,-190.708 67.75,-199.083 67.75,-207.5C67.75,-208.333 67.7917,-209.208 67.875,-210.125C67.9583,-211.042 68.1458,-211.917 68.4375,-212.75C68.7292,-213.583 69.1875,-214.271 69.8125,-214.813C70.4375,-215.354 71.2917,-215.625 72.375,-215.625C74.375,-215.625 75.625,-215 76.125,-213.75C76.625,-212.5 76.875,-211.083 76.875,-209.5L76.875,-157.25C76.875,-156 77.3125,-154.938 78.1875,-154.063C79.0625,-153.188 80.125,-152.75 81.375,-152.75C82.625,-152.75 83.6875,-153.188 84.5625,-154.063C85.4375,-154.938 85.875,-156 85.875,-157.25L85.875,-209.5C85.875,-211.167 86.1458,-212.604 86.6875,-213.813C87.2292,-215.021 88.4583,-215.625 90.375,-215.625C92.375,-215.625 93.625,-215 94.125,-213.75C94.625,-212.5 94.875,-211.083 94.875,-209.5L94.875,-157.25C94.875,-156 95.3125,-154.938 96.1875,-154.063C97.0625,-153.188 98.125,-152.75 99.375,-152.75C100.625,-152.75 101.687,-153.188 102.563,-154.063C103.437,-154.938 103.875,-156 103.875,-157.25L103.875,-209.5C103.875,-211.167 104.146,-212.604 104.688,-213.813C105.229,-215.021 106.458,-215.625 108.375,-215.625ZM166.75,-179.75L166.75,-98.875C166.75,-96.375 165.875,-94.25 164.125,-92.5C162.375,-90.75 160.25,-89.875 157.75,-89.875L157.75,-80.875C155.583,-79.875 153.354,-79.0833 151.063,-78.5C148.771,-77.9167 146.417,-77.625 144,-77.625C141.75,-77.625 139.521,-77.9167 137.313,-78.5C135.104,-79.0833 132.958,-79.875 130.875,-80.875L130.875,-215.625C135.875,-215.625 140.542,-214.687 144.875,-212.813C149.208,-210.937 153,-208.375 156.25,-205.125C159.5,-201.875 162.063,-198.083 163.938,-193.75C165.813,-189.417 166.75,-184.75 166.75,-179.75Z" fill="#CCCCCC" fill-opacity="1">
  </path>
  <path d="M94.875,22.375C94.875,24.2917 94.5208,26.0625 93.8125,27.6875C93.1042,29.3125 92.1458,30.7292 90.9375,31.9375C89.7292,33.1458 88.2917,34.1042 86.625,34.8125C84.9583,35.5208 83.2083,35.875 81.375,35.875C79.5417,35.875 77.8125,35.5208 76.1875,34.8125C74.5625,34.1042 73.1458,33.125 71.9375,31.875C70.7292,30.625 69.7708,29.1875 69.0625,27.5625C68.3542,25.9375 68,24.2083 68,22.375L68,-98.875C70.0833,-100.125 72.25,-101.125 74.5,-101.875C76.75,-102.625 79.0833,-103 81.5,-103C83.9167,-103 86.25,-102.625 88.5,-101.875C90.75,-101.125 92.875,-100.125 94.875,-98.875ZM130.875,22.375L130.875,-71.875C135.375,-73.2917 139.917,-74 144.5,-74C148.917,-74 153.333,-73.2917 157.75,-71.875L157.75,22.375C157.75,24.2917 157.396,26.0625 156.688,27.6875C155.979,29.3125 155.021,30.7292 153.813,31.9375C152.604,33.1458 151.167,34.1042 149.5,34.8125C147.833,35.5208 146.083,35.875 144.25,35.875C142.333,35.875 140.563,35.5208 138.938,34.8125C137.313,34.1042 135.917,33.125 134.75,31.875C133.583,30.625 132.646,29.1875 131.938,27.5625C131.229,25.9375 130.875,24.2083 130.875,22.375Z" fill="#B3DBF2" fill-opacity="1">
  </path>
  <path d="M68,-107.875L94.875,-107.875L94.875,-98.875L68,-98.875ZM157.75,-80.875L157.75,-71.875L130.875,-71.875L130.875,-80.875Z" fill="#E5E5E5" fill-opacity="1">
  </path>
</svg>