<!-- Exported by Character Map UWP -->
<svg height="100%" viewBox="32 -234 288 288" width="100%" xmlns="http://www.w3.org/2000/svg" xmlns:xlink="http://www.w3.org/1999/xlink">
  <path d="M73.75,53.875L32,-50.375L32,-197.625C32,-202.542 33.1042,-207.021 35.3125,-211.063C37.5208,-215.104 40.75,-218.333 45,-220.75C46.5833,-223.583 48.4375,-225.854 50.5625,-227.563C52.6875,-229.271 54.9583,-230.583 57.375,-231.5C59.7917,-232.417 62.3958,-233.021 65.1875,-233.313C67.9792,-233.604 70.875,-233.75 73.875,-233.75C75.875,-233.75 77.8958,-233.729 79.9375,-233.688C81.9792,-233.646 84,-233.625 86,-233.625C90.0833,-233.625 93.7708,-232.896 97.0625,-231.438C100.354,-229.979 103.167,-228 105.5,-225.5C107.833,-223 109.646,-220.042 110.938,-216.625C112.229,-213.208 112.875,-209.5 112.875,-205.5C116.542,-204.417 119.75,-202.646 122.5,-200.188C125.25,-197.729 127.375,-194.75 128.875,-191.25C137.958,-199.083 148.042,-205.104 159.125,-209.313C170.208,-213.521 181.75,-215.625 193.75,-215.625C202.833,-215.625 211.583,-214.437 220,-212.063C228.417,-209.687 236.292,-206.354 243.625,-202.063C250.958,-197.771 257.625,-192.625 263.625,-186.625C269.625,-180.625 274.771,-173.958 279.063,-166.625C283.354,-159.292 286.688,-151.417 289.063,-143C291.438,-134.583 292.625,-125.833 292.625,-116.75L292.625,-34.75C301.208,-27.25 307.833,-18.3958 312.5,-8.1875C317.167,2.02083 319.5,12.8333 319.5,24.25L319.5,53.875Z" fill="#000000" fill-opacity="1">
  </path>
  <path d="M113,-18L113,-116.75C113,-127.917 115.104,-138.417 119.313,-148.25C123.521,-158.083 129.292,-166.646 136.625,-173.938C143.958,-181.229 152.521,-187 162.313,-191.25C172.104,-195.5 182.583,-197.625 193.75,-197.625C201.167,-197.625 208.333,-196.667 215.25,-194.75C222.167,-192.833 228.604,-190.104 234.563,-186.563C240.521,-183.021 245.958,-178.792 250.875,-173.875C255.792,-168.958 260.021,-163.521 263.563,-157.563C267.104,-151.604 269.833,-145.167 271.75,-138.25C273.667,-131.333 274.625,-124.167 274.625,-116.75L274.625,-18Z" fill="#8E562E" fill-opacity="1">
  </path>
  <path d="M241.5,-36C249.833,-36 257.646,-34.4167 264.938,-31.25C272.229,-28.0833 278.583,-23.7708 284,-18.3125C289.417,-12.8542 293.688,-6.47917 296.813,0.8125C299.938,8.10417 301.5,15.9167 301.5,24.25L301.5,35.875L85.875,35.875L50,-53.875L50,-143.75C50.5833,-145.333 51.5833,-146.667 53,-147.75C54.4167,-148.833 55.9792,-149.708 57.6875,-150.375C59.3958,-151.042 61.1667,-151.521 63,-151.813C64.8333,-152.104 66.5,-152.25 68,-152.25C71.25,-152.25 74.1667,-151.792 76.75,-150.875C79.3333,-149.958 81.8333,-148.333 84.25,-146C84.5,-145.75 84.8125,-145.417 85.1875,-145C85.5625,-144.583 85.7917,-144.167 85.875,-143.75L103.875,-53.875C103.958,-53.4583 104.313,-52.8125 104.938,-51.9375C105.563,-51.0625 106,-50.4167 106.25,-50C109.333,-45.9167 112.875,-42.5417 116.875,-39.875C120.875,-37.2083 125.542,-35.875 130.875,-35.875C149.458,-35.875 167.896,-35.8958 186.188,-35.9375C204.479,-35.9792 222.917,-36 241.5,-36Z" fill="#886CE4" fill-opacity="1">
  </path>
  <path d="M94.875,-188.75C95.875,-188.75 96.8958,-188.771 97.9375,-188.813C98.9792,-188.854 100,-188.875 101,-188.875C102.417,-188.875 103.833,-188.792 105.25,-188.625C106.667,-188.458 107.958,-188.104 109.125,-187.563C110.292,-187.021 111.25,-186.229 112,-185.188C112.75,-184.146 113.125,-182.75 113.125,-181C113.125,-180 112.917,-178.979 112.5,-177.938C112.083,-176.896 111.5,-176.042 110.75,-175.375L85.875,-152.75L85.875,-143.75L50.125,-143.75L50.125,-197.625C50.125,-200.292 50.9583,-202.458 52.625,-204.125C54.2917,-205.792 56.4583,-206.625 59.125,-206.625C59.125,-209.292 59.9375,-211.458 61.5625,-213.125C63.1875,-214.792 65.3333,-215.625 68,-215.625L86,-215.625C88.6667,-215.625 90.8125,-214.792 92.4375,-213.125C94.0625,-211.458 94.875,-209.292 94.875,-206.625ZM211.625,-36C214.125,-36 216.25,-35.125 218,-33.375C219.75,-31.625 220.625,-29.5 220.625,-27C220.625,-25.6667 220.292,-24.3333 219.625,-23L201.625,12.875C200.875,14.4583 199.813,15.7083 198.438,16.625C197.063,17.5417 195.5,18 193.75,18C192.083,18 190.5,17.5417 189,16.625C187.5,15.7083 186.375,14.5 185.625,13L167.75,-23C167.083,-24.3333 166.75,-25.6667 166.75,-27C166.75,-29.5 167.625,-31.625 169.375,-33.375C171.125,-35.125 173.25,-36 175.75,-36ZM202.625,-161.75C204.958,-156.75 208.042,-152.083 211.875,-147.75C215.708,-143.417 220.021,-139.625 224.813,-136.375C229.604,-133.125 234.708,-130.563 240.125,-128.688C245.542,-126.813 251.042,-125.875 256.625,-125.875L256.625,-108C256.625,-99.3333 254.979,-91.1875 251.688,-83.5625C248.396,-75.9375 243.896,-69.2708 238.188,-63.5625C232.479,-57.8542 225.813,-53.3333 218.188,-50C210.563,-46.6667 202.417,-45 193.75,-45C185.083,-45 176.917,-46.6458 169.25,-49.9375C161.583,-53.2292 154.917,-57.7292 149.25,-63.4375C143.583,-69.1458 139.104,-75.8333 135.813,-83.5C132.521,-91.1667 130.875,-99.3333 130.875,-108L130.875,-125.875C139.625,-125.958 147.125,-128.333 153.375,-133C159.625,-137.667 164,-144.167 166.5,-152.5C168.083,-149.417 170.25,-146.771 173,-144.563C175.75,-142.354 178.771,-140.521 182.063,-139.063C185.354,-137.604 188.792,-136.521 192.375,-135.813C195.958,-135.104 199.375,-134.75 202.625,-134.75Z" fill="#FFC83D" fill-opacity="1">
  </path>
  <path d="M211.625,-80.875C211.625,-78.375 211.167,-76.0417 210.25,-73.875C209.333,-71.7083 208.062,-69.8125 206.438,-68.1875C204.812,-66.5625 202.917,-65.2708 200.75,-64.3125C198.583,-63.3542 196.25,-62.875 193.75,-62.875C191.25,-62.875 188.917,-63.3542 186.75,-64.3125C184.583,-65.2708 182.688,-66.5625 181.063,-68.1875C179.438,-69.8125 178.146,-71.7083 177.188,-73.875C176.229,-76.0417 175.75,-78.375 175.75,-80.875ZM166.75,-125.75C169.167,-125.75 171.271,-124.875 173.063,-123.125C174.854,-121.375 175.75,-119.292 175.75,-116.875L175.75,-107.875C175.75,-105.375 174.875,-103.25 173.125,-101.5C171.375,-99.75 169.25,-98.875 166.75,-98.875C164.25,-98.875 162.125,-99.75 160.375,-101.5C158.625,-103.25 157.75,-105.375 157.75,-107.875L157.75,-116.875C157.75,-119.292 158.646,-121.375 160.438,-123.125C162.229,-124.875 164.333,-125.75 166.75,-125.75ZM220.625,-125.75C223.042,-125.75 225.146,-124.875 226.938,-123.125C228.729,-121.375 229.625,-119.292 229.625,-116.875L229.625,-107.875C229.625,-105.375 228.75,-103.25 227,-101.5C225.25,-99.75 223.125,-98.875 220.625,-98.875C218.208,-98.875 216.104,-99.7708 214.313,-101.563C212.521,-103.354 211.625,-105.458 211.625,-107.875L211.625,-116.875C211.625,-119.292 212.521,-121.375 214.313,-123.125C216.104,-124.875 218.208,-125.75 220.625,-125.75Z" fill="#000000" fill-opacity="1">
  </path>
  <path d="M202.75,-98.875C202.75,-96.4583 201.854,-94.3542 200.063,-92.5625C198.271,-90.7708 196.167,-89.875 193.75,-89.875C191.25,-89.875 189.125,-90.75 187.375,-92.5C185.625,-94.25 184.75,-96.375 184.75,-98.875Z" fill="#F7894A" fill-opacity="1">
  </path>
</svg>