<!-- Exported by Character Map UWP -->
<svg height="100%" viewBox="32 -216 288 270" width="100%" xmlns="http://www.w3.org/2000/svg" xmlns:xlink="http://www.w3.org/1999/xlink">
  <path d="M310.5,-12.125C313.417,-6.54167 315.646,-0.666666 317.188,5.5C318.729,11.6667 319.5,17.9167 319.5,24.25L319.5,53.875L64.875,53.875C60.375,53.875 56.125,53.0208 52.125,51.3125C48.125,49.6042 44.625,47.25 41.625,44.25C38.625,41.25 36.2708,37.75 34.5625,33.75C32.8542,29.75 32,25.5 32,21C32,19.1667 32.1667,17.1667 32.5,15C32.8333,12.8333 33.375,10.9167 34.125,9.25C39.2083,-1.66667 44.2708,-12.4583 49.3125,-23.125C54.3542,-33.7917 59.25,-44.625 64,-55.625C63.6667,-55.875 63.3542,-56.125 63.0625,-56.375C62.7708,-56.625 62.5,-56.9167 62.25,-57.25C52.4167,-67.6667 44.9167,-78.8333 39.75,-90.75C34.5833,-102.667 32,-115.833 32,-130.25C32,-133.333 32.5833,-136.25 33.75,-139C34.9167,-141.75 36.5208,-144.146 38.5625,-146.188C40.6042,-148.229 43,-149.833 45.75,-151C48.5,-152.167 51.4167,-152.75 54.5,-152.75C56.9167,-152.75 59.2708,-152.354 61.5625,-151.563C63.8542,-150.771 65.9583,-149.667 67.875,-148.25C69.7917,-149.667 71.9167,-150.771 74.25,-151.563C76.5833,-152.354 78.9583,-152.75 81.375,-152.75C84.4583,-152.75 87.375,-152.167 90.125,-151C92.875,-149.833 95.2708,-148.229 97.3125,-146.188C99.3542,-144.146 100.958,-141.75 102.125,-139C103.292,-136.25 103.875,-133.333 103.875,-130.25C103.875,-126.167 104.646,-122.208 106.188,-118.375C107.729,-114.542 109.958,-111.167 112.875,-108.25L112.875,-116.75C112.875,-125.833 114.042,-134.583 116.375,-143C118.708,-151.417 122.021,-159.292 126.313,-166.625C130.604,-173.958 135.771,-180.625 141.813,-186.625C147.854,-192.625 154.521,-197.771 161.813,-202.063C169.104,-206.354 176.958,-209.687 185.375,-212.063C193.792,-214.437 202.542,-215.625 211.625,-215.625C220.708,-215.625 229.458,-214.437 237.875,-212.063C246.292,-209.687 254.167,-206.354 261.5,-202.063C268.833,-197.771 275.5,-192.625 281.5,-186.625C287.5,-180.625 292.646,-173.958 296.938,-166.625C301.229,-159.292 304.563,-151.417 306.938,-143C309.313,-134.583 310.5,-125.833 310.5,-116.75L310.5,-12.125Z" fill="#000000" fill-opacity="1">
  </path>
  <path d="M97.25,-87.75C96,-87.75 94.9167,-88.1667 94,-89C91.25,-91.3333 88.8125,-94.125 86.6875,-97.375C84.5625,-100.625 82.7708,-104.104 81.3125,-107.813C79.8542,-111.521 78.75,-115.313 78,-119.188C77.25,-123.063 76.875,-126.75 76.875,-130.25C76.875,-131.5 77.3125,-132.563 78.1875,-133.438C79.0625,-134.313 80.125,-134.75 81.375,-134.75C82.625,-134.75 83.6875,-134.313 84.5625,-133.438C85.4375,-132.563 85.875,-131.5 85.875,-130.25C85.875,-126.5 86.2083,-123.104 86.875,-120.063C87.5417,-117.021 88.5,-114.146 89.75,-111.438C91,-108.729 92.5208,-106.083 94.3125,-103.5C96.1042,-100.917 98.125,-98.2083 100.375,-95.375C100.792,-94.7917 101.104,-94.2708 101.313,-93.8125C101.521,-93.3542 101.625,-92.7917 101.625,-92.125C101.625,-90.9583 101.187,-89.9375 100.313,-89.0625C99.4375,-88.1875 98.4167,-87.75 97.25,-87.75ZM78.125,-68.625C77.4583,-68.625 76.875,-68.75 76.375,-69C75.875,-69.25 75.4167,-69.5833 75,-70C71,-73.5 67.4375,-77.625 64.3125,-82.375C61.1875,-87.125 58.5625,-92.1667 56.4375,-97.5C54.3125,-102.833 52.7083,-108.313 51.625,-113.938C50.5417,-119.563 50,-125 50,-130.25C50,-131.5 50.4375,-132.563 51.3125,-133.438C52.1875,-134.313 53.25,-134.75 54.5,-134.75C55.75,-134.75 56.8125,-134.313 57.6875,-133.438C58.5625,-132.563 59,-131.5 59,-130.25C59,-122.167 60.25,-114.25 62.75,-106.5C65.25,-98.75 68.9167,-91.625 73.75,-85.125C74.25,-84.4583 75,-83.6042 76,-82.5625C77,-81.5208 77.9792,-80.4167 78.9375,-79.25C79.8958,-78.0833 80.75,-76.9583 81.5,-75.875C82.25,-74.7917 82.625,-73.875 82.625,-73.125C82.625,-71.9583 82.1667,-70.9167 81.25,-70C80.3333,-69.0833 79.2917,-68.625 78.125,-68.625Z" fill="#FFFFFF" fill-opacity="1">
  </path>
  <path d="M130.875,-18L130.875,-116.75C130.875,-127.917 132.979,-138.417 137.188,-148.25C141.396,-158.083 147.167,-166.646 154.5,-173.938C161.833,-181.229 170.396,-187 180.188,-191.25C189.979,-195.5 200.458,-197.625 211.625,-197.625C219.042,-197.625 226.208,-196.667 233.125,-194.75C240.042,-192.833 246.479,-190.104 252.438,-186.563C258.396,-183.021 263.833,-178.792 268.75,-173.875C273.667,-168.958 277.896,-163.521 281.438,-157.563C284.979,-151.604 287.708,-145.167 289.625,-138.25C291.542,-131.333 292.5,-124.167 292.5,-116.75L292.5,0Z" fill="#8E562E" fill-opacity="1">
  </path>
  <path d="M241.5,-36C249.833,-36 257.646,-34.4167 264.938,-31.25C272.229,-28.0833 278.583,-23.7708 284,-18.3125C289.417,-12.8542 293.688,-6.45833 296.813,0.875C299.938,8.20833 301.5,16 301.5,24.25L301.5,35.875L64.875,35.875C62.7917,35.875 60.8542,35.4792 59.0625,34.6875C57.2708,33.8958 55.7083,32.8333 54.375,31.5C53.0417,30.1667 51.9792,28.6042 51.1875,26.8125C50.3958,25.0208 50,23.0833 50,21C50,20.3333 50.0625,19.5 50.1875,18.5C50.3125,17.5 50.5,16.7083 50.75,16.125L75.625,-37L94.875,-40.5L103.875,-22.5L94.875,0C105.875,-5.41667 116.833,-10.75 127.75,-16C138.667,-21.25 149.583,-26.5833 160.5,-32C163.917,-33.4167 167.417,-34.4375 171,-35.0625C174.583,-35.6875 178.208,-36 181.875,-36L193.75,-36C194.833,-35.25 196.125,-34.3958 197.625,-33.4375C199.125,-32.4792 200.687,-31.5833 202.313,-30.75C203.937,-29.9167 205.562,-29.2292 207.188,-28.6875C208.812,-28.1458 210.292,-27.875 211.625,-27.875C212.958,-27.875 214.438,-28.1458 216.063,-28.6875C217.688,-29.2292 219.333,-29.9167 221,-30.75C222.667,-31.5833 224.25,-32.4792 225.75,-33.4375C227.25,-34.3958 228.542,-35.25 229.625,-36Z" fill="#886CE4" fill-opacity="1">
  </path>
  <path d="M187.875,-156.125C189.292,-152.875 191.125,-149.938 193.375,-147.313C195.625,-144.688 198.188,-142.438 201.063,-140.563C203.938,-138.688 207.021,-137.25 210.313,-136.25C213.604,-135.25 217.042,-134.75 220.625,-134.75L220.625,-160.25C220.792,-155.417 221.854,-150.917 223.813,-146.75C225.771,-142.583 228.375,-138.938 231.625,-135.813C234.875,-132.688 238.646,-130.229 242.938,-128.438C247.229,-126.646 251.792,-125.75 256.625,-125.75L274.625,-125.75L274.625,-107.875C274.625,-99.125 272.979,-90.9375 269.688,-83.3125C266.396,-75.6875 261.896,-69.0417 256.188,-63.375C250.479,-57.7083 243.792,-53.2292 236.125,-49.9375C228.458,-46.6458 220.292,-45 211.625,-45C203.875,-45 196.458,-46.3542 189.375,-49.0625C182.292,-51.7708 175.979,-55.5417 170.438,-60.375C164.896,-65.2083 160.25,-70.8958 156.5,-77.4375C152.75,-83.9792 150.292,-91.125 149.125,-98.875C146.875,-98.875 145.125,-99.2708 143.875,-100.063C142.625,-100.854 141.688,-101.896 141.063,-103.188C140.438,-104.479 140.063,-105.938 139.938,-107.563C139.813,-109.188 139.75,-110.875 139.75,-112.625C139.75,-114.208 139.833,-115.792 140,-117.375C140.167,-118.958 140.563,-120.375 141.188,-121.625C141.813,-122.875 142.729,-123.875 143.938,-124.625C145.146,-125.375 146.75,-125.75 148.75,-125.75C153.333,-125.75 157.75,-126.5 162,-128C166.25,-129.5 170.104,-131.583 173.563,-134.25C177.021,-136.917 179.979,-140.104 182.438,-143.813C184.896,-147.521 186.708,-151.625 187.875,-156.125ZM130.75,-89.875C133.25,-89.875 135.396,-89 137.188,-87.25C138.979,-85.5 139.875,-83.375 139.875,-80.875C139.875,-79.7917 139.521,-78.3333 138.813,-76.5C138.104,-74.6667 137.25,-72.7708 136.25,-70.8125C135.25,-68.8542 134.25,-66.9583 133.25,-65.125C132.25,-63.2917 131.458,-61.8333 130.875,-60.75L130.875,-49.375C130.875,-47.5417 130.521,-45.8125 129.813,-44.1875C129.104,-42.5625 128.125,-41.1458 126.875,-39.9375C125.625,-38.7292 124.188,-37.7708 122.563,-37.0625C120.938,-36.3542 119.208,-36 117.375,-36L108.375,-36L103.875,-22.5L75.625,-37L86.875,-63.75C87.875,-66.1667 89.5208,-68.125 91.8125,-69.625C94.1042,-71.125 96.5833,-71.875 99.25,-71.875L116.25,-71.875L122.75,-84.875C123.5,-86.375 124.604,-87.5833 126.063,-88.5C127.521,-89.4167 129.083,-89.875 130.75,-89.875ZM229.625,-36C232.125,-36 234.25,-35.125 236,-33.375C237.75,-31.625 238.625,-29.5 238.625,-27C238.625,-25.6667 238.292,-24.3333 237.625,-23L219.625,12.875C218.875,14.4583 217.813,15.7083 216.438,16.625C215.063,17.5417 213.5,18 211.75,18C210.083,18 208.5,17.5417 207,16.625C205.5,15.7083 204.375,14.5 203.625,13L185.75,-23C185.083,-24.3333 184.75,-25.6667 184.75,-27C184.75,-29.5 185.625,-31.625 187.375,-33.375C189.125,-35.125 191.25,-36 193.75,-36Z" fill="#FFC83D" fill-opacity="1">
  </path>
  <path d="M211.625,-62.875C209.125,-62.875 206.792,-63.3542 204.625,-64.3125C202.458,-65.2708 200.562,-66.5625 198.938,-68.1875C197.312,-69.8125 196.021,-71.7083 195.063,-73.875C194.104,-76.0417 193.625,-78.375 193.625,-80.875L229.5,-80.875C229.5,-78.375 229.042,-76.0417 228.125,-73.875C227.208,-71.7083 225.938,-69.8125 224.313,-68.1875C222.688,-66.5625 220.792,-65.2708 218.625,-64.3125C216.458,-63.3542 214.125,-62.875 211.625,-62.875ZM238.625,-125.75C241.042,-125.75 243.146,-124.875 244.938,-123.125C246.729,-121.375 247.625,-119.292 247.625,-116.875L247.625,-107.875C247.625,-105.375 246.75,-103.25 245,-101.5C243.25,-99.75 241.125,-98.875 238.625,-98.875C236.125,-98.875 234,-99.75 232.25,-101.5C230.5,-103.25 229.625,-105.375 229.625,-107.875L229.625,-116.875C229.625,-119.292 230.521,-121.375 232.313,-123.125C234.104,-124.875 236.208,-125.75 238.625,-125.75ZM193.75,-107.875C193.75,-105.375 192.875,-103.25 191.125,-101.5C189.375,-99.75 187.25,-98.875 184.75,-98.875C182.25,-98.875 180.125,-99.75 178.375,-101.5C176.625,-103.25 175.75,-105.375 175.75,-107.875L175.75,-116.875C175.75,-119.292 176.646,-121.375 178.438,-123.125C180.229,-124.875 182.333,-125.75 184.75,-125.75C187.167,-125.75 189.271,-124.875 191.063,-123.125C192.854,-121.375 193.75,-119.292 193.75,-116.875Z" fill="#000000" fill-opacity="1">
  </path>
  <path d="M220.625,-98.875C220.625,-96.4583 219.729,-94.3542 217.938,-92.5625C216.146,-90.7708 214.042,-89.875 211.625,-89.875C209.125,-89.875 207,-90.75 205.25,-92.5C203.5,-94.25 202.625,-96.375 202.625,-98.875Z" fill="#F7894A" fill-opacity="1">
  </path>
</svg>