<svg id="Layer_1" data-name="Layer 1" xmlns="http://www.w3.org/2000/svg" viewBox="0 0 293.64 293.64"><defs><style>.cls-1{fill:#3f33b5;}.cls-2{fill:#fff;}</style></defs><rect class="cls-1" width="293.64" height="293.64" rx="146.82"/><rect class="cls-2" x="67.47" y="132.19" width="158.7" height="100.48" rx="12.25"/><polygon class="cls-1" points="146.44 191.81 76.11 153.47 146.44 170.32 146.44 191.81"/><polygon class="cls-1" points="146.44 191.81 216.76 153.47 146.44 170.32 146.44 191.81"/><path class="cls-1" d="M88.46,121.78" transform="translate(-8.56 -3.18)"/><path class="cls-2" d="M139.39,67.75c10.83-6.73,26.2-5.66,35.35,3.5,4.67-2.34,9.33-5,14.53-6,2.08-.11,2.36,2.23,2.17,3.79-1,8.82-6.06,17-5.77,25.91,3.43,9,6.88,18,10.19,27.05,1.83,6,3.77,18.45,3.77,18.45l-88.49-3.63s5.22-36.59,14-52.84A38.32,38.32,0,0,1,139.39,67.75Z" transform="translate(-8.56 -3.18)"/><path class="cls-2" d="M122.37,144.29s-13-13.39-21-18c-14.14-6.84-29.95-10.61-45.71-9.59-5.42.35-16.2,1.33-24.06,4.84-8.84,4-14.52,10.53-15.2,12.07a35.8,35.8,0,0,1,14.74-1.06,84.08,84.08,0,0,1,45.41,21.58C76.83,154.49,122.37,144.29,122.37,144.29Z" transform="translate(-8.56 -3.18)"/><path class="cls-2" d="M188.43,144.29s13-13.39,21-18c14.14-6.84,29.95-10.61,45.7-9.59,5.42.35,16.21,1.33,24.06,4.84,8.84,4,14.53,10.53,15.21,12.07a35.8,35.8,0,0,0-14.74-1.06,84,84,0,0,0-45.41,21.58C234,154.49,188.43,144.29,188.43,144.29Z" transform="translate(-8.56 -3.18)"/></svg>